<svg xmlns="http://www.w3.org/2000/svg" xmlns:xlink="http://www.w3.org/1999/xlink" width="1035" height="573"><defs><linearGradient x1="50%" y1="0%" x2="50%" y2="98.1630068%" id="A"><stop stop-color="#fff" stop-opacity="0" offset="0%"/><stop stop-opacity=".2" offset="100%"/></linearGradient><path d="M133 0h770c16.57 0 30 13.43 30 30v510H103V30c0-16.57 13.43-30 30-30zm-2 27v486h775V27H131z" id="B"/><path d="M958.297 32.106h-881.6C30.867 32.106 0 26.398 0 20.66V3.22C0 1.497 1.996.106 4.48.106h1026.036c2.485 0 4.485 1.39 4.485 3.115v18.127c-.01 4.535-23.914 10.758-76.703 10.758z" id="C"/></defs><g fill="none" fill-rule="evenodd"><g fill-rule="nonzero"><use fill="#242424" xlink:href="#B"/><use fill="url(#A)" xlink:href="#B"/></g><circle fill="#000" cx="518" cy="14" r="3"/><g transform="translate(0 540)"><g fill-rule="nonzero"><use fill="#242424" xlink:href="#C"/><use fill-opacity=".2" fill="#000" xlink:href="#C"/></g><path d="M4 0h1027a4 4 0 0 1 4 4v16H0V4a4 4 0 0 1 4-4z" fill="#242424"/></g><path d="M629 540v4.487c0 3.2-6.47 4.165-11.37 4.165H416.67c-5.153 0-11.67-.965-11.67-4.165V540" fill="#151515" fill-rule="nonzero"/></g></svg>