<svg xmlns="http://www.w3.org/2000/svg" width="299" height="626" fill="none" fill-rule="evenodd"><path d="M40 0h219c22.09 0 40 17.91 40 40v546c0 22.09-17.91 40-40 40H40c-22.09 0-40-17.91-40-40V40C0 17.91 17.91 0 40 0zm4 10c-18.778 0-34 15.222-34 34v538c0 18.778 15.222 34 34 34h212c18.778 0 34-15.222 34-34V44c0-18.778-15.222-34-34-34H44z" fill="#fff"/><path d="M44 10.5c-18.502 0-33.5 14.998-33.5 33.5v538c0 18.502 14.998 33.5 33.5 33.5h212c18.502 0 33.5-14.998 33.5-33.5V44c0-18.502-14.998-33.5-33.5-33.5H44z" stroke="#eaeaea"/></svg>