<?xml version="1.0" standalone="no"?>
<!DOCTYPE svg PUBLIC "-//W3C//DTD SVG 20010904//EN"
 "http://www.w3.org/TR/2001/REC-SVG-20010904/DTD/svg10.dtd">
<svg version="1.0" xmlns="http://www.w3.org/2000/svg"
 width="225.000000pt" height="225.000000pt" viewBox="0 0 225.000000 225.000000"
 preserveAspectRatio="xMidYMid meet">
<metadata>
Created by potrace 1.11, written by Peter Selinger 2001-2013
</metadata>
<g transform="translate(0.000000,225.000000) scale(0.100000,-0.100000)"
fill="#000000" stroke="none">
<path d="M10 2012 c0 -5 155 -237 465 -697 78 -115 222 -329 320 -475 432
-642 396 -592 418 -573 11 10 166 162 345 338 178 176 404 399 503 496 98 96
179 180 179 185 0 5 -19 29 -41 54 -23 25 -76 83 -118 130 -190 210 -298 328
-332 365 -20 22 -64 72 -99 110 -34 39 -65 70 -68 70 -5 0 -86 -284 -97 -339
-3 -16 -8 -33 -11 -37 -5 -8 126 -53 133 -45 5 5 34 106 35 124 2 17 15 15 30
-6 14 -20 150 -171 248 -275 l34 -37 -54 16 c-30 9 -125 38 -210 66 -85 27
-195 62 -245 78 -49 15 -297 94 -550 175 -253 81 -556 177 -672 215 -117 37
-213 65 -213 62z m925 -432 c687 -219 743 -237 915 -291 74 -23 138 -45 143
-49 6 -5 -515 -529 -632 -635 -32 -29 -32 -29 -22 -5 6 14 24 79 41 145 17 66
56 214 87 330 30 116 56 214 57 218 1 7 -105 46 -126 47 -8 0 -24 -54 -73
-245 -58 -224 -147 -560 -150 -563 -4 -4 -79 104 -297 428 -101 151 -264 393
-361 537 -98 144 -177 265 -177 267 0 3 6 4 13 1 6 -2 268 -85 582 -185z"/>
</g>
</svg>
