<?xml version="1.0" standalone="no"?>
<!DOCTYPE svg PUBLIC "-//W3C//DTD SVG 20010904//EN"
 "http://www.w3.org/TR/2001/REC-SVG-20010904/DTD/svg10.dtd">
<svg version="1.0" xmlns="http://www.w3.org/2000/svg"
 width="512.000000pt" height="512.000000pt" viewBox="0 0 512.000000 512.000000"
 preserveAspectRatio="xMidYMid meet">
<metadata>
Created by potrace 1.11, written by Peter Selinger 2001-2013
</metadata>
<g transform="translate(0.000000,512.000000) scale(0.100000,-0.100000)"
fill="#000000" stroke="none">
<path d="M2653 4639 c-46 -23 -48 -25 -111 -215 -40 -121 -81 -211 -152 -334
-20 -36 -63 -114 -95 -175 -164 -310 -318 -569 -514 -865 -53 -80 -100 -152
-106 -162 -24 -39 -218 -316 -325 -463 -445 -611 -589 -809 -712 -975 -148
-199 -447 -569 -517 -640 -89 -91 -107 -141 -80 -231 13 -40 67 -98 110 -116
36 -15 137 -9 174 10 35 19 88 73 136 138 19 26 135 176 259 335 286 367 831
1092 1017 1354 246 346 531 773 683 1023 30 49 57 90 60 92 4 2 1 -24 -6 -58
-8 -34 -16 -78 -19 -97 -3 -19 -7 -46 -10 -60 -3 -14 -7 -36 -10 -50 -3 -14
-9 -47 -15 -75 -11 -58 -17 -91 -26 -154 -4 -25 -8 -55 -10 -66 -7 -39 -18
-241 -18 -335 0 -234 24 -361 84 -453 30 -44 83 -86 115 -91 8 -1 17 -4 20 -7
13 -14 120 3 166 26 67 34 165 136 241 248 84 125 415 569 565 757 98 124 283
353 307 381 17 19 56 64 86 99 53 61 218 247 267 300 23 25 -5 -47 -98 -248
-16 -35 -29 -65 -29 -67 0 -3 -64 -142 -120 -260 -16 -33 -40 -85 -53 -115
-14 -30 -34 -75 -45 -100 -11 -25 -50 -117 -87 -205 -36 -88 -72 -173 -80
-190 -7 -16 -36 -86 -63 -155 -111 -275 -178 -493 -198 -636 -3 -27 -8 -58
-10 -68 -16 -86 -23 -350 -11 -447 17 -144 101 -263 208 -293 95 -27 205 -11
322 45 126 60 337 241 477 409 30 36 57 67 61 70 62 56 460 624 536 765 80
148 85 173 53 238 -30 59 -56 72 -150 72 -128 -1 -152 -18 -293 -216 -331
-461 -520 -687 -754 -901 -75 -69 -84 -66 -78 30 11 175 31 278 96 487 61 194
161 476 198 560 5 11 31 72 57 135 60 147 131 303 229 505 42 88 92 192 110
230 18 39 46 99 63 135 67 144 201 452 242 556 89 226 85 407 -9 486 -56 48
-181 49 -275 2 -84 -42 -147 -95 -339 -287 -266 -265 -430 -455 -732 -847
-224 -290 -392 -507 -564 -724 -100 -128 -126 -155 -132 -140 -3 11 -5 21 -4
24 1 3 6 34 9 69 4 36 9 67 11 70 3 6 17 103 30 211 3 25 13 83 21 130 9 47
18 99 21 115 2 17 15 75 28 130 13 55 27 116 30 135 3 19 8 42 10 50 2 8 6 26
9 40 2 14 9 52 15 85 9 53 28 169 47 289 3 21 8 48 10 60 13 64 17 99 17 176
0 69 -4 93 -23 130 -12 24 -33 84 -46 133 -34 128 -62 179 -105 194 -54 19
-129 16 -176 -8z"/>
</g>
</svg>
